# xmcd
#
# Track frame offsets: 
#        150
#        10522
#        30393
#        47439
#        75520
#        77016
#        94542
#        97871
#        119896
#        140528
#        145901
#        169114
#        196086
#        215175
#        236650
#        258255
#
# Disc length: 3633 seconds
#
# Revision: 6
# Processed by: cddbd v1.5.2PL0 Copyright (c) Steve Scherf et al.
# Submitted via: ExactAudioCopy v1.0b3
#
DISCID=c80e2f10
DTITLE=Cassandra Steen - Seele mit Herz
DYEAR=2003
DGENRE=Soul
TTITLE0=Inspiration (Intro)
TTITLE1=Wie du lachst
TTITLE2=Cassandra Steen mit Azad and Kool Savas - Nichts haelt mich
TTITLE3=Geht es dir besser so?
TTITLE4=Gestern und heute (Skit)
TTITLE5=Cassandra Steen mit Eko Fresh - Das Schicksal
TTITLE6=Soul (Skit)
TTITLE7=Seele mit Herz
TTITLE8=Unter Null
TTITLE9=Illa (Skit)
TTITLE10=Cassandra Steen mit Illmatic - Alles was du willst (Part II)
TTITLE11=Cassandra Steen mit Moses Pelham - Supermarkt Song
TTITLE12=Lied fuer dich
TTITLE13=Warum rufst du mich an?
TTITLE14=Du bist Liebe
TTITLE15=Intorno all'idol mio
EXTD=YEAR: 2003
EXTT0=
EXTT1=
EXTT2=
EXTT3=
EXTT4=
EXTT5=
EXTT6=
EXTT7=
EXTT8=
EXTT9=
EXTT10=
EXTT11=
EXTT12=
EXTT13=
EXTT14=
EXTT15=
PLAYORDER=
